<svg height="512pt" viewBox="-9 0 511 512" width="512pt" xmlns="http://www.w3.org/2000/svg"><path d="m462.816406 316.460938-45.585937-44.933594-15.671875 15.714844 45.609375 44.949218c.285156.402344.664062 1.308594.75 1.792969v43.496094h-18.34375c.214843.550781.34375 1.144531.34375 1.769531v18.683594c0 .625-.128907 1.214844-.34375 1.769531h23.882812c9.167969 0 16.625-7.476563 16.625-16.667969v-49.207031c0-6.011719-2.988281-13.152344-7.265625-17.367187zm0 0" fill="#ce7a00"/><path d="m149.261719 478.390625v21.109375c0 2.75 2.25 5 5 5h62.226562c2.75 0 5-2.25 5-5v-21.109375zm0 0" fill="#72563c"/><path d="m169.855469 499.5v-21.109375h-20.59375v21.109375c0 2.75 2.25 5 5 5h20.59375c-2.75 0-5-2.25-5-5zm0 0" fill="#563d28"/><path d="m137.230469 402.433594v70.957031c0 2.75 2.25 5 5 5h262.472656c2.75 0 5-2.25 5-5v-70.957031zm0 0" fill="#9b5729"/><path d="m325.449219 478.390625v21.109375c0 2.75 2.25 5 5 5h62.226562c2.75 0 5-2.25 5-5v-21.109375zm0 0" fill="#72563c"/><path d="m346.042969 499.5v-21.109375h-20.59375v21.109375c0 2.75 2.25 5 5 5h20.59375c-2.75 0-5-2.25-5-5zm0 0" fill="#563d28"/><path d="m485.710938 478.167969c0 2.75-2.25 5-5 5h-24.1875c-2.75 0-5-2.25-5-5v-8.167969c0-2.75 2.25-5 5-5h24.1875c2.75 0 5 2.25 5 5zm0 0" fill="#383838"/><path d="m377.421875 374.25c.097656-.546875.15625-1.105469.15625-1.683594v-13.613281c0-5.5-4.5-10-10-10h-188.21875c-5.5 0-10 4.5-10 10v13.613281c0 .574219.058594 1.136719.152344 1.683594zm0 0" fill="#383838"/><path d="m211.007812 374.25c-.09375-.546875-.152343-1.105469-.152343-1.683594v-13.613281c0-5.5 4.5-10 10-10h-41.496094c-5.5 0-10 4.5-10 10v13.613281c0 .574219.058594 1.136719.152344 1.683594zm0 0" fill="#282828"/><path d="m137.230469 402.433594v70.957031c0 2.75 2.25 5 5 5h262.472656c2.75 0 5-2.25 5-5v-70.957031zm0 0" fill="#9b5729"/><path d="m161.855469 473.390625v-70.457031h-24.625v70.457031c0 2.75 2.25 5 5 5h24.625c-2.75 0-5-2.25-5-5zm0 0" fill="#7f441c"/><path d="m196.710938 402.433594h153.511718v75.957031h-153.511718zm0 0" fill="#b57a4e"/><path d="m429.917969 397.933594c0 2.75-2.25 5-5 5h-302.898438c-2.75 0-5-2.25-5-5v-18.683594c0-2.75 2.25-5 5-5h302.898438c2.75 0 5 2.25 5 5zm0 0" fill="#7f441c"/><path d="m159.957031 397.933594v-18.683594c0-2.75 2.25-5 5-5h-42.9375c-2.75 0-5 2.25-5 5v18.683594c0 2.75 2.25 5 5 5h42.9375c-2.75 0-5-2.25-5-5zm0 0" fill="#602f0e"/><path d="m366.027344 208.777344c-7.460938-27.804688-11.007813-61.949219-9.398438-95.523438.535156-17.976562 2.992188-46.828125 11.675782-82.199218.578124-2.371094 1.09375-4.464844-.425782-6.066407-4.554687-6.558593-11.835937-10.96875-20.574218-12.441406-12.582032-2.125-26.527344 1.792969-38.257813 10.746094-2.117187 1.609375-4.132813 3.371093-5.984375 5.230469-8.109375 8.128906-13.214844 18.078124-14.433594 27.90625-12.183594-.664063-25.636718 4.523437-36.148437 14.164062-.660157.605469-1.320313 1.234375-1.949219 1.867188-9.453125 9.476562-14.992188 21.480468-15.375 32.933593-11.421875.382813-23.394531 5.9375-32.847656 15.410157-.632813.632812-1.261719 1.292968-1.859375 1.953124-9.621094 10.542969-14.796875 24.027344-14.136719 36.238282-9.800781 1.226562-19.726562 6.339844-27.835938 14.472656-1.851562 1.855469-3.609374 3.878906-5.214843 6-8.929688 11.757812-12.835938 25.734375-10.71875 38.351562 1.46875 8.761719 5.863281 16.058594 12.40625 20.625 1.597656 1.527344 3.683593 1.011719 6.042969.429688 35.277343-8.703125 64.066406-11.171875 82.085937-11.710938 33.4375-1.609374 67.480469 1.949219 95.207031 9.425782zm0 0" fill="#ffaf10"/><path d="m361.910156 212.902344-73.28125-156.472656c-12.183594-.664063-25.636718 4.523437-36.148437 14.164062-.660157.605469-1.320313 1.234375-1.949219 1.867188-9.453125 9.476562-14.992188 21.480468-15.375 32.933593l117 117.289063zm0 0" fill="#f39600"/><path d="m342.398438 232.464844-156.085938-73.46875c-9.800781 1.226562-19.726562 6.339844-27.835938 14.472656-1.851562 1.855469-3.609374 3.878906-5.214843 6-8.929688 11.757812-12.835938 25.734375-10.71875 38.351562 1.46875 8.761719 5.863281 16.058594 12.40625 20.625 1.597656 1.527344 3.683593 1.011719 6.042969.429688 35.277343-8.703125 64.066406-11.171875 82.085937-11.710938 33.4375-1.609374 67.480469 1.949219 95.207031 9.425782zm0 0" fill="#f39600"/><path d="m259.046875 219.28125c14.910156 0 29.5625.945312 43.507813 2.71875l-25.390626-11.949219c-14.765624-1.277343-30.050781-1.613281-45.210937-.886719-17.835937.535157-46.230469 2.960938-81.015625 11.453126 1.488281 4.601562 4.085938 8.460937 7.574219 11.144531.230469-.058594.46875-.117188.679687-.167969 35.875-8.855469 65.25-11.371094 83.59375-11.925781 5.355469-.253907 10.828125-.386719 16.261719-.386719zm0 0" fill="#ce7a00"/><path d="m418.070312 263.65625c1.707032 2.152344 1.515626 5.511719-.425781 7.457031l-17.652343 17.703125c-1.941407 1.945313-5.277344 2.121094-7.417969.390625l-55.164063-44.695312c-2.136718-1.730469-2.296875-4.742188-.351562-6.6875l30.195312-30.277344c1.941406-1.949219 4.929688-1.777344 6.636719.378906zm0 0" fill="#ffaf10"/><path d="m362.566406 244.511719c-2.136718-1.730469-2.292968-4.742188-.351562-6.6875l19.710937-19.765625-8.035156-10.136719c-1.707031-2.152344-4.695313-2.324219-6.636719-.375l-30.195312 30.273437c-1.945313 1.949219-1.785156 4.957032.351562 6.691407l55.164063 44.695312c2.140625 1.730469 5.476562 1.554688 7.417969-.394531l7.710937-7.730469zm0 0" fill="#f39600"/><path d="m291.109375 439.710938c0-9.769532-7.898437-17.691407-17.640625-17.691407-9.746094 0-17.644531 7.921875-17.644531 17.691407 0 9.765624 7.898437 17.6875 17.644531 17.6875 9.742188 0 17.640625-7.921876 17.640625-17.6875zm0 0" fill="#ffc987"/><path d="m270.566406 439.710938c0-7.128907 4.214844-13.257813 10.273438-16.058594-2.246094-1.039063-4.738282-1.632813-7.371094-1.632813-9.742188 0-17.644531 7.921875-17.644531 17.691407 0 9.765624 7.902343 17.6875 17.644531 17.6875 2.632812 0 5.125-.597657 7.371094-1.636719-6.058594-2.800781-10.273438-8.925781-10.273438-16.050781zm0 0" fill="#ffaf68"/><path d="m29.964844 244.566406c-.566406 0-1.097656-.21875-1.496094-.617187l-17.324219-17.167969c-2.027343-2.007812-3.144531-4.679688-3.144531-7.519531 0-2.839844 1.117188-5.515625 3.144531-7.523438 2.027344-2.011719 4.722657-3.117187 7.59375-3.117187 2.867188 0 5.5625 1.105468 7.59375 3.117187l3.636719 3.601563 3.636719-3.601563c2.027343-2.011719 4.722656-3.117187 7.59375-3.117187 2.867187 0 5.5625 1.105468 7.59375 3.117187 2.027343 2.007813 3.140625 4.683594 3.140625 7.523438 0 2.839843-1.113282 5.511719-3.140625 7.519531l-17.328125 17.167969c-.402344.398437-.9375.617187-1.5.617187zm0 0" fill="#f66"/><path d="m94.074219 231.925781c-.5625 0-1.09375-.222656-1.496094-.613281l-17.324219-17.167969c-2.027344-2.011719-3.144531-4.683593-3.144531-7.527343 0-2.835938 1.117187-5.511719 3.144531-7.515626 2.027344-2.011718 4.722656-3.121093 7.59375-3.121093 2.867188 0 5.5625 1.109375 7.597656 3.121093l3.628907 3.597657 3.640625-3.597657c2.027344-2.011718 4.726562-3.121093 7.59375-3.121093 2.867187 0 5.5625 1.109375 7.59375 3.121093 2.023437 2.003907 3.140625 4.679688 3.140625 7.515626 0 2.84375-1.117188 5.515624-3.140625 7.527343l-17.328125 17.167969c-.402344.390625-.933594.613281-1.5.613281zm0 0" fill="#f66"/><path d="m176.019531 34.90625c-2.679687.617188-4.875-1.125-4.875-3.875v-12.921875c0-2.75 2.207031-5.433594 4.90625-5.964844l23.078125-4.550781c2.695313-.53125 4.902344 1.28125 4.902344 4.03125v11.816406c0 2.75-2.191406 5.503906-4.871094 6.125zm0 0" fill="#ff99a3"/><path d="m149.179688 119.847656c-.566407 0-1.097657-.21875-1.496094-.617187l-17.324219-17.167969c-2.03125-2.007812-3.144531-4.683594-3.144531-7.523438 0-2.839843 1.113281-5.511718 3.144531-7.519531 2.027344-2.007812 4.71875-3.117187 7.589844-3.117187 2.867187 0 5.566406 1.109375 7.597656 3.117187l3.632813 3.601563 3.636718-3.601563c2.03125-2.007812 4.726563-3.117187 7.59375-3.117187 2.867188 0 5.5625 1.109375 7.589844 3.117187 2.027344 2.007813 3.148438 4.679688 3.148438 7.519531 0 2.84375-1.121094 5.515626-3.148438 7.523438l-17.324219 17.167969c-.402343.398437-.933593.617187-1.496093.617187zm0 0" fill="#ff99a3"/><path d="m438.714844 481.738281h5.835937c1.539063 5.15625 6.320313 8.929688 11.972657 8.929688h24.1875c6.890624 0 12.5-5.609375 12.5-12.5v-8.167969c0-6.894531-5.609376-12.5-12.5-12.5h-24.1875c-5.761719 0-10.613282 3.925781-12.054688 9.238281h-3.253906v-35.027343c0-6.894532-5.609375-12.5-12.5-12.5h-11.511719v-8.777344h7.714844c3.214843 0 6.140625-1.230469 8.355469-3.230469h20.183593c13.304688 0 24.125-10.84375 24.125-24.167969v-7.035156c0-4.144531-3.359375-7.5-7.5-7.5-4.144531 0-7.5 3.355469-7.5 7.5v7.035156c0 5.054688-4.09375 9.164063-9.125 9.164063h-16.039062v-7.21875h10.5c4.140625 0 7.5-3.359375 7.5-7.5v-43.496094c0-.425781-.035157-.851563-.109375-1.273437-.277344-1.597657-1.09375-3.554688-2.035156-4.875-.253907-.351563-.535157-.679688-.839844-.984376l-40.238282-39.652343 5.082032-5.09375 40.277344 39.695312c2.867187 2.824219 5.027343 7.996094 5.027343 12.027344v7.171875c0 4.144531 3.355469 7.5 7.5 7.5 4.140625 0 7.5-3.355469 7.5-7.5v-7.171875c0-7.984375-3.816406-17.113281-9.5-22.710937l-41.675781-41.078126c.835938-3.773437.042969-7.886718-2.460938-11.042968l-44.179687-55.730469c-2.128906-2.6875-5.207031-4.296875-8.53125-4.527344-5.863281-25.421875-8.539063-55.460937-7.117187-85.125.003906-.046875.003906-.089843.007812-.136719.523438-17.621093 2.9375-45.914062 11.464844-80.648437.691406-2.839844 1.964844-8.039063-1.820313-12.503906-5.722656-8.007813-14.660156-13.390625-25.21875-15.175781-2.632812-.441407-5.355469-.667969-8.089843-.667969-12.335938 0-25.109376 4.5625-35.957032 12.84375-2.375 1.808593-4.648437 3.792969-6.753906 5.902343-7.519531 7.535157-12.8125 16.519532-15.300781 25.820313-12.359375 1.042969-24.929688 6.75-35.039063 16.019531-.761718.699219-1.5 1.40625-2.1875 2.097656-8.972656 8.992188-14.917968 20.160157-16.878906 31.421876-11.234375 1.96875-22.375 7.933593-31.347656 16.925781-.710938.710937-1.414063 1.449219-2.089844 2.191406-9.1875 10.070313-14.910156 22.808594-15.96875 35.121094-9.285156 2.5-18.253906 7.808593-25.769531 15.347656-2.082031 2.089844-4.0625 4.363281-5.882813 6.761719-10.171875 13.398437-14.597656 29.484375-12.140625 44.128906 1.777344 10.582031 7.144531 19.535156 15.140625 25.273438 1.523438 1.285156 3.925782 2.617187 7.335938 2.617187 1.945312 0 3.652344-.421875 5.167968-.796875 34.636719-8.546875 62.898438-10.96875 80.511719-11.496094.046875 0 .09375-.003906.136719-.003906 5.140625-.246094 10.390625-.375 15.609375-.375 24.34375 0 48.359375 2.710938 69.183594 7.53125.222656 3.300781 1.835937 6.402344 4.457031 8.527344l55.167969 44.695312c2.277343 1.847656 5.1875 2.863282 8.191406 2.863282 1.632813 0 3.238281-.3125 4.738281-.886719l39.632813 39.058593v33.910157h-7.144531c-2.214844-2-5.140626-3.230469-8.355469-3.230469h-18.265625v-40.015625c0-9.648437-7.847656-17.5-17.5-17.5h-62.007813c-9.652343 0-17.5 7.851563-17.5 17.5v14.71875h-130.285156c-9.648437 0-17.5 7.851563-17.5 17.5v7.796875h-39.839844c-6.894531 0-12.5 5.605469-12.5 12.5v18.683594c0 6.890625 5.605469 12.5 12.5 12.5h7.710938v62.957031c0 6.734375 5.355469 12.226563 12.03125 12.476563v11.132812h-24.742188c-4.144531 0-7.5 3.355469-7.5 7.5s3.355469 7.5 7.5 7.5h368.691407c4.140624 0 7.5-3.355469 7.5-7.5s-3.359376-7.5-7.5-7.5h-80.539063v-11.132812c6.675781-.25 12.03125-5.742188 12.03125-12.476563v-39.179687h9.011719v35.027343c0 6.894531 5.605468 12.5 12.5 12.5zm20.308594-9.238281h19.1875v3.167969h-19.1875zm-203.179688-394.742188c.550781-.558593 1.128906-1.105468 1.707031-1.636718 7.621094-6.988282 17.261719-11.402344 26.335938-12.132813l17.886719 38.195313c1.277343 2.722656 3.976562 4.320312 6.796874 4.320312 1.066407 0 2.148438-.230468 3.175782-.710937 3.753906-1.757813 5.367187-6.222657 3.613281-9.972657l-18.964844-40.492187c1.4375-7.585937 5.632813-15.152344 11.972657-21.507813 1.625-1.628906 3.382812-3.164062 5.230468-4.566406 8.257813-6.304687 17.796875-9.773437 26.863282-9.773437 1.902343 0 3.785156.152343 5.597656.460937 6.375 1.074219 11.714844 4.117188 15.136718 8.601563-.058593.246093-.121093.5-.175781.722656-8.824219 35.953125-11.335937 65.347656-11.886719 83.699219-.96875 20.265625-.078124 40.78125 2.398438 60.089844l-21.1875-45.234376c-1.753906-3.753906-6.222656-5.371093-9.972656-3.609374-3.75 1.753906-5.367188 6.21875-3.609375 9.972656l36.128906 77.140625-.734375.738281-109.238281-109.507812c1.128906-8.695313 5.722656-17.578126 12.925781-24.796876zm3.203125 141.523438c-5.433594 0-10.90625.132812-16.261719.386719-18.34375.554687-47.71875 3.074219-83.59375 11.925781-.210937.054688-.449218.113281-.679687.167969-4.46875-3.433594-7.5-8.789063-8.574219-15.183594-1.777344-10.582031 1.613281-22.457031 9.296875-32.578125 1.414063-1.863281 2.945313-3.621094 4.554687-5.234375 6.332032-6.351563 13.867188-10.550781 21.425782-11.996094l117.339844 55.234375c-13.945313-1.777344-28.597657-2.722656-43.507813-2.722656zm81.769531 4.152344-146.945312-69.167969c.710937-9.105469 5.0625-18.71875 12.121094-26.457031.527343-.578125 1.074218-1.15625 1.625-1.707032 7.191406-7.207031 16.039062-11.8125 24.691406-12.945312l109.253906 109.527344zm3.890625 17.335937 25.4375-25.5 41.007813 51.734375-15.226563 15.265625zm-20.0625 85.964844c0-1.355469 1.144531-2.5 2.5-2.5h62.007813c1.355468 0 2.5 1.144531 2.5 2.5v40.015625h-6.574219v-7.796875c0-9.648437-7.851563-17.5-17.5-17.5h-42.933594zm-147.785156 32.21875c0-1.351563 1.144531-2.5 2.5-2.5h188.21875c1.355469 0 2.5 1.148437 2.5 2.5v7.796875h-193.21875zm37.128906 138.046875h-57.226562v-11.109375h57.226562zm-69.257812-26.109375v-60.457031h44.480469v60.457031zm173.21875 26.109375h-88.960938v-11.109375h88.960938zm72.222656 0h-57.222656v-11.109375h57.222656zm12.03125-26.109375h-44.480469v-60.457031h44.480469zm-149.347656-75.457031c-4.144531 0-7.5 3.355468-7.5 7.5 0 4.140625 3.355469 7.5 7.5 7.5h89.867187v60.457031h-138.511718v-60.457031h13.644531c4.140625 0 7.5-3.359375 7.5-7.5 0-4.144532-3.359375-7.5-7.5-7.5h-93.335938v-13.683594h297.898438v13.683594zm0 0"/><path d="m273.464844 464.898438c13.863281 0 25.144531-11.300782 25.144531-25.1875 0-13.890626-11.277344-25.191407-25.144531-25.191407-13.863282 0-25.140625 11.300781-25.140625 25.191407 0 13.886718 11.277343 25.1875 25.140625 25.1875zm0-35.378907c5.59375 0 10.144531 4.570313 10.144531 10.191407 0 5.617187-4.550781 10.1875-10.144531 10.1875s-10.140625-4.570313-10.140625-10.1875c0-5.621094 4.550781-10.191407 10.140625-10.191407zm0 0"/><path d="m123.542969 206.617188v-76.429688c0-3.5625-1.523438-6.855469-4.175781-9.039062-2.65625-2.183594-6.183594-3.042969-9.679688-2.351563l-54.296875 10.707031c-6.246094 1.230469-10.957031 6.957032-10.957031 13.324219v58.589844c-1.058594-.1875-2.140625-.296875-3.238282-.296875-4.121093 0-8.035156 1.351562-11.226562 3.84375-3.195312-2.492188-7.109375-3.84375-11.230469-3.84375-4.859375 0-9.433593 1.878906-12.863281 5.285156-3.46875 3.425781-5.375 7.988281-5.375 12.851562 0 4.859376 1.90625 9.425782 5.367188 12.851563l17.324218 17.171875c1.8125 1.796875 4.21875 2.785156 6.773438 2.785156 2.5625 0 4.972656-.996094 6.773437-2.789062l17.332031-17.167969c3.457032-3.429687 5.363282-7.992187 5.363282-12.851563v-75.261718l49.105468-9.683594v54.464844c-1.058593-.1875-2.136718-.296875-3.234374-.296875-4.117188 0-8.03125 1.351562-11.230469 3.84375-3.195313-2.492188-7.109375-3.84375-11.226563-3.84375-4.863281 0-9.4375 1.878906-12.867187 5.285156-3.464844 3.425781-5.375 7.988281-5.375 12.851563 0 4.859374 1.90625 9.425781 5.367187 12.851562l17.339844 17.183594c1.816406 1.785156 4.214844 2.769531 6.761719 2.769531s4.949219-.984375 6.777343-2.785156l17.328126-17.171875c3.460937-3.429688 5.363281-7.992188 5.363281-12.847656zm-80.03125 14.835937-13.546875 13.421875-13.542969-13.421875c-.601563-.597656-.921875-1.355469-.921875-2.191406 0-.835938.316406-1.59375.929688-2.195313.621093-.617187 1.417968-.945312 2.308593-.945312s1.691407.328125 2.316407.949218l3.632812 3.601563c2.921875 2.890625 7.628906 2.894531 10.554688 0l3.640624-3.605469c1.246094-1.234375 3.375-1.238281 4.632813.003906.601563.597657.917969 1.351563.917969 2.191407 0 .835937-.320313 1.597656-.921875 2.191406zm64.109375-12.636719-13.542969 13.417969-13.546875-13.421875c-.601562-.597656-.921875-1.359375-.921875-2.195312 0-.835938.316406-1.589844.929687-2.191407.621094-.617187 1.421876-.945312 2.3125-.945312.886719 0 1.691407.328125 2.3125.945312l3.632813 3.601563c2.921875 2.894531 7.628906 2.894531 10.554687.003906l3.640626-3.601562c1.253906-1.242188 3.378906-1.242188 4.632812 0 .601562.59375.917969 1.351562.917969 2.1875 0 .839843-.320313 1.601562-.921875 2.199218zm0 0"/><path d="m142.40625 124.5625c1.8125 1.796875 4.21875 2.785156 6.773438 2.785156 2.554687 0 4.957031-.988281 6.773437-2.789062l17.324219-17.167969c3.460937-3.429687 5.367187-7.996094 5.367187-12.851563 0-.089843-.011719-.175781-.011719-.265624.003907-.085938.011719-.171876.011719-.257813v-52.019531l22.199219-5.121094c6.09375-1.40625 10.6875-7.179688 10.6875-13.433594v-11.816406c0-6.519531-5.039062-11.625-11.476562-11.625-.789063 0-1.589844.078125-2.378907.234375l-23.074219 4.550781c-6.246093 1.230469-10.957031 6.957032-10.957031 13.324219v58.589844c-1.058593-.1875-2.136719-.296875-3.234375-.296875-4.117187 0-8.03125 1.351562-11.230468 3.84375-3.195313-2.492188-7.109376-3.84375-11.230469-3.84375-4.855469 0-9.429688 1.878906-12.863281 5.285156-3.464844 3.425781-5.371094 7.988281-5.371094 12.851562 0 4.859376 1.902344 9.425782 5.363281 12.851563zm36.238281-105.285156 17.886719-3.527344v6.726562l-17.886719 4.125zm-43.003906 73.070312c.621094-.617187 1.421875-.945312 2.308594-.945312.890625 0 1.691406.328125 2.316406.949218l3.636719 3.597657c2.921875 2.894531 7.632812 2.894531 10.554687 0l3.632813-3.597657c1.253906-1.238281 3.378906-1.246093 4.636718 0 .601563.597657.921876 1.355469.921876 2.1875 0 .835938-.320313 1.597657-.925782 2.195313l-13.542968 13.421875-13.542969-13.421875c-.605469-.597656-.921875-1.355469-.921875-2.195313-.003906-.835937.316406-1.589843.925781-2.191406zm0 0"/></svg>